<svg id="Layer_1" data-name="Layer 1" xmlns="http://www.w3.org/2000/svg" viewBox="0 0 49.04 49.04"><defs><style>.cls-1{fill:#f47736;}.cls-2,.cls-3{fill:none;stroke:#fff;stroke-miterlimit:10;}.cls-3{stroke-width:0.5px;}</style></defs><rect class="cls-1" width="49.04" height="49.04" rx="5.9"/><path class="cls-2" d="M253.43,396l6.69,6v21.56a1.5,1.5,0,0,1-1.5,1.5H231.27a1.5,1.5,0,0,1-1.5-1.5v-26a1.5,1.5,0,0,1,1.49-1.5h22.41" transform="translate(-220.42 -385.95)"/><rect class="cls-2" x="13.08" y="14.95" width="7.94" height="6.72"/><line class="cls-3" x1="23.73" y1="15.7" x2="29.14" y2="15.7"/><line class="cls-3" x1="23.73" y1="18.87" x2="29.14" y2="18.87"/><line class="cls-3" x1="23.73" y1="21.67" x2="36.24" y2="21.67"/><line class="cls-3" x1="13.08" y1="24.85" x2="36.24" y2="24.85"/><line class="cls-3" x1="13.08" y1="28.02" x2="36.24" y2="28.02"/><line class="cls-3" x1="13.08" y1="30.73" x2="36.24" y2="30.73"/><line class="cls-3" x1="12.94" y1="33.44" x2="36.1" y2="33.44"/><polyline class="cls-3" points="31.76 10 31.76 16.16 33.53 17.84 39.7 17.84"/></svg>