<svg id="Layer_1" data-name="Layer 1" xmlns="http://www.w3.org/2000/svg" viewBox="0 0 57.51 17.01"><defs><style>.cls-1{fill:#fff;}</style></defs><path class="cls-1" d="M142.52,338a2.43,2.43,0,0,1-1.85-.52c-.33-.33-.45-.47-.47-.76-.22-2.37,4-3.82,6-4.4a34.06,34.06,0,0,1,6.34-1.19,21.56,21.56,0,0,1,6,.17c.77.16,1.32.4,1.37.73s-.31.71-.56.73c-.09,0-.15,0-.16,0s0-.09.1-.11.14-.1.13-.2a.24.24,0,0,0-.13-.2,13.15,13.15,0,0,0-5-.29c-.42,0-.86.1-1.25.16.54.35.61.47.62.59s-.12.22-.18.27c-2.92,2.12-6.38,7.1-7,9.2.85-.73,1.45-1.36,2.45-2.08a.68.68,0,0,1,.3-.15s.11.05.11.07a15,15,0,0,0-2.67,3.32.56.56,0,0,1-.49.36c-.32,0-1-.27-1-.67a5.48,5.48,0,0,1,.67-2.46,37.3,37.3,0,0,1,6-8.26c-1,.17-1.83.36-2.62.54-2.32.57-5.38,1.5-7.19,3.31a1.41,1.41,0,0,0-.55,1.1c.11.52.8.49,1.45.48.07,0,.42,0,.43.06s-.16.12-.28.15A5.48,5.48,0,0,1,142.52,338Z" transform="translate(-140.19 -326.66)"/><path class="cls-1" d="M151.66,339.88a24.73,24.73,0,0,1,3.16-3.15.29.29,0,0,1,.22-.13,1,1,0,0,1,.82.68c0,.19-.22.42-.48.74a1.91,1.91,0,0,0-.49,1.25.62.62,0,0,0,.18.36l-.11,0a.94.94,0,0,1-.9-.93,1.8,1.8,0,0,1,.16-1,33.56,33.56,0,0,0-3.65,4.16,3.15,3.15,0,0,0-.6,1.49c-.48,0-.68-.32-.72-.76a2.75,2.75,0,0,1,.32-1.25c.67-1.21,1.37-2.54,2.64-4.65a10.38,10.38,0,0,1-1.5,1.06.2.2,0,0,1-.18-.09c0-.1.15-.22.15-.22a9.48,9.48,0,0,1,2.07-1.5,1,1,0,0,1,1,.75,1.41,1.41,0,0,1-.3.58Z" transform="translate(-140.19 -326.66)"/><path class="cls-1" d="M155.19,340.94c-.19-2,2.32-4.67,4.22-5.65a2,2,0,0,1,.61-.18c.48,0,1.44,1,1.56,1.41.11,1.17-2.13,2.62-3.36,2.73-.48,0-.65,0-.66-.13s.32-.13.43-.16c1.18-.39,2.69-2.17,2.64-2.79a8.87,8.87,0,0,0-3.35,2.64,4.22,4.22,0,0,0-1.11,2.52.58.58,0,0,0,.66.55,7.51,7.51,0,0,0,3.11-2.26.26.26,0,0,1,.18-.13c.06,0,.08,0,.09.12a7.91,7.91,0,0,1-2,2.41,2.61,2.61,0,0,1-1.12.67A2.08,2.08,0,0,1,155.19,340.94Z" transform="translate(-140.19 -326.66)"/><path class="cls-1" d="M161.92,335.21s-.06-.06-.07-.08a1.19,1.19,0,0,1,.17-.44c.32-.65.92-1.66,1.12-2.22,0-.07,0-.09.14-.1.27,0,.9.25.94.63A5.35,5.35,0,0,1,161.92,335.21Z" transform="translate(-140.19 -326.66)"/><path class="cls-1" d="M175.69,329.56c-3.48.32-8.4,3.07-8.19,5.34.07.67.59.91.61,1.12,0,0,0,0-.06.05a2.69,2.69,0,0,1-1.79-1.94c-.13-1.37,1.38-3,3.94-4.31a14.09,14.09,0,0,1,5.28-1.52c2.38-.22,4.71.49,4.94,2.94.32,3.4-5.17,5.36-7.82,5.6-.4,0-.49,0-.52-.14s.25-.29.25-.29c2.88-.86,7.36-3.54,7.18-5.46C179.38,329.51,176.83,329.45,175.69,329.56ZM170,340.24c0,.31.16.72.53.69.08,0,.11,0,.11.05s-.33.24-.54.26a1.39,1.39,0,0,1-1.45-1.3c-.12-1.29.9-2.77,1.73-3.83-.23-.23-.28-.29-.29-.38a.3.3,0,0,1,.29-.23c.15,0,.22.08.36.2a10.67,10.67,0,0,1,4.42-3.06c.35,0,.55,0,.6.13a15.1,15.1,0,0,0-4.31,3.78c1,1.11,2.07,3.09,3.94,3.1a1.43,1.43,0,0,0,.95-.59.34.34,0,0,1,.16-.1s.09,0,.09.06a.48.48,0,0,1-.06.23c-.53.85-.94,1.46-2,1.55-1.33.13-2.43-1.75-3.55-3.64A5.77,5.77,0,0,0,170,340.24Z" transform="translate(-140.19 -326.66)"/><path class="cls-1" d="M178.61,339.56c1.28-.64,5.08-5.49,5.7-5.57a1.17,1.17,0,0,1,.89.74.78.78,0,0,1-.27.46c-1.54,2.19-2,3.68-2,4.2a1.94,1.94,0,0,0,.16.58s0,.1,0,.11c-.64-.05-1-.44-1.06-1.21a6.64,6.64,0,0,1,1.38-3.45c-3.12,3.72-3.71,4.86-4.46,4.93a1.35,1.35,0,0,1-1.28-1.14c-.18-1.91,2-4.84,2.67-5.67.38-.39.14-.51.37-.55a1.88,1.88,0,0,1,1.1.54c.12.14.18.2.19.28s-.05.13-.16.25C180.55,335.37,178.73,337.66,178.61,339.56Z" transform="translate(-140.19 -326.66)"/><path class="cls-1" d="M189.81,332.16c.44,0,.78.43,1,.78l.07.1a.85.85,0,0,1,.4.62,3.45,3.45,0,0,1-2.49,2.64s-.09-.07-.09-.11a5.19,5.19,0,0,0,1-1,4,4,0,0,0,1-1.67c0-.13-.12-.16-.29-.14a3.76,3.76,0,0,0-1.94.81,3.52,3.52,0,0,0-1.63,3.32c.06.61.34,1.11.4,1.77,0,.27,0,.59-.38.63a2.93,2.93,0,0,1-2.78-2.27c0-.19.06-.28.12-.28s.17.17.37.55a2.05,2.05,0,0,0,1.7,1.1c.1,0,.18-.1.16-.26a6,6,0,0,1-.58-2c-.16-1.73.66-2.85,2.1-3.87A3.85,3.85,0,0,1,189.81,332.16Z" transform="translate(-140.19 -326.66)"/><path class="cls-1" d="M197.56,332.8a.34.34,0,0,1-.14.33c-2,2.18-2.16,4-2.09,4.86s.43.76.43.8-.21.13-.3.13a1.31,1.31,0,0,1-.77-.43,2.16,2.16,0,0,1-.56-1.23c-.15-1.67,1.36-3.7,1.36-3.7a43.31,43.31,0,0,0-4.12,4.52c-.88,1.16-1,1.38-1,1.38-.1.2-.2.27-.24.27-.32,0-.54-.62-.56-.76a2.58,2.58,0,0,1,.33-1.27,37.89,37.89,0,0,1,2.74-4.61c1.2-1.79,2.4-3.6,3.52-5.55a1.18,1.18,0,0,0,.14-.52c0-.09-.08-.14-.09-.25a.1.1,0,0,1,.1-.11.62.62,0,0,1,.34.09c.49.21,1,.69,1.05,1.1.06.63-.84,1.64-.84,1.64a34.46,34.46,0,0,0-5,7.16c.29-.32,1.29-1.49,2.52-2.73.58-.58,1.17-1.19,1.73-1.72.1-.07.13-.16.32-.2C196.85,332,197.53,332.43,197.56,332.8Z" transform="translate(-140.19 -326.66)"/></svg>